<?xml version="1.0" standalone="no"?>
<!DOCTYPE svg PUBLIC "-//W3C//DTD SVG 20010904//EN"
 "http://www.w3.org/TR/2001/REC-SVG-20010904/DTD/svg10.dtd">
<svg version="1.0" xmlns="http://www.w3.org/2000/svg"
 width="417.000000pt" height="417.000000pt" viewBox="0 0 417.000000 417.000000"
 preserveAspectRatio="xMidYMid meet">

<g transform="translate(0.000000,417.000000) scale(0.100000,-0.100000)"
fill="#000000" stroke="none">
<path d="M1 3233 c1 -847 3 -929 15 -841 52 357 213 726 441 1008 72 89 264
277 348 341 280 214 632 363 973 413 88 12 6 14 -840 15 l-938 1 1 -937z"/>
<path d="M2350 4159 c524 -67 1000 -331 1352 -749 235 -280 413 -700 457
-1080 5 -47 9 287 10 883 l1 957 -942 -1 c-555 -1 -916 -5 -878 -10z"/>
<path d="M1511 2700 c-184 -15 -278 -36 -336 -75 -60 -40 -136 -131 -230 -273
-56 -84 -78 -108 -119 -132 -73 -41 -132 -95 -162 -146 -25 -42 -27 -56 -32
-198 l-5 -152 32 -36 c34 -39 95 -73 116 -64 7 2 16 -2 19 -10 7 -19 56 -15
67 6 4 8 13 35 19 60 26 98 146 174 275 174 148 0 262 -84 283 -207 7 -40 9
-42 42 -42 32 0 36 3 41 35 4 21 7 26 8 13 2 -45 43 -48 632 -48 592 0 592 0
606 54 7 25 8 24 13 -9 5 -32 8 -35 39 -35 33 0 35 2 47 47 17 67 48 112 101
147 58 39 111 53 188 52 72 0 112 -11 172 -46 52 -31 103 -105 103 -150 0 -38
16 -55 52 -55 34 0 44 30 30 84 -6 21 -7 36 -1 36 5 0 9 19 9 43 0 23 5 82 11
130 13 107 9 126 -37 177 -85 94 -199 127 -639 183 l-99 13 -84 99 c-46 55
-121 139 -166 187 -90 96 -114 107 -271 128 -109 14 -584 21 -724 10z m537
-117 c-16 -2 -40 -2 -55 0 -16 2 -3 4 27 4 30 0 43 -2 28 -4z m150 -10 c-10
-2 -26 -2 -35 0 -10 3 -2 5 17 5 19 0 27 -2 18 -5z m-590 -10 c-16 -2 -40 -2
-55 0 -16 2 -3 4 27 4 30 0 43 -2 28 -4z m679 1 c-3 -3 -12 -4 -19 -1 -8 3 -5
6 6 6 11 1 17 -2 13 -5z m-824 -11 c-7 -2 -19 -2 -25 0 -7 3 -2 5 12 5 14 0
19 -2 13 -5z m-76 -9 c-3 -3 -12 -4 -19 -1 -8 3 -5 6 6 6 11 1 17 -2 13 -5z
m450 -36 c-3 -8 -6 -5 -6 6 -1 11 2 17 5 13 3 -3 4 -12 1 -19z m-557 -2 c0 -2
-8 -10 -17 -17 -16 -13 -17 -12 -4 4 13 16 21 21 21 13z m1205 -76 c38 -38 67
-70 64 -70 -2 0 -36 32 -74 70 -38 39 -67 70 -64 70 2 0 36 -31 74 -70z m-818
8 c-3 -7 -5 -2 -5 12 0 14 2 19 5 13 2 -7 2 -19 0 -25z m160 -10 c-3 -7 -5 -2
-5 12 0 14 2 19 5 13 2 -7 2 -19 0 -25z m-627 -1 c0 -2 -10 -12 -22 -23 l-23
-19 19 23 c18 21 26 27 26 19z m-50 -61 c0 -2 -8 -10 -17 -17 -16 -13 -17 -12
-4 4 13 16 21 21 21 13z m683 -109 c7 -2 5 -3 -3 -3 -11 1 -15 15 -16 59 l-1
57 4 -54 c2 -31 9 -57 16 -59z m758 56 c13 -16 12 -17 -3 -4 -17 13 -22 21
-14 21 2 0 10 -8 17 -17z m-1488 -33 c3 -11 1 -18 -4 -14 -5 3 -9 12 -9 20 0
20 7 17 13 -6z m530 -7 c-13 -2 -33 -2 -45 0 -13 2 -3 4 22 4 25 0 35 -2 23
-4z m-300 -10 c-24 -2 -62 -2 -85 0 -24 2 -5 4 42 4 47 0 66 -2 43 -4z m605
-20 c-10 -2 -26 -2 -35 0 -10 3 -2 5 17 5 19 0 27 -2 18 -5z m175 -10 c-13 -2
-35 -2 -50 0 -16 2 -5 4 22 4 28 0 40 -2 28 -4z m224 -10 c-20 -2 -52 -2 -70
0 -17 2 0 4 38 4 39 0 53 -2 32 -4z m276 -10 c-13 -2 -35 -2 -50 0 -16 2 -5 4
22 4 28 0 40 -2 28 -4z m-655 -50 c-10 -2 -26 -2 -35 0 -10 3 -2 5 17 5 19 0
27 -2 18 -5z m99 -75 c-3 -8 -6 -5 -6 6 -1 11 2 17 5 13 3 -3 4 -12 1 -19z
m1339 -27 c48 -29 87 -86 88 -129 1 -32 -2 -37 -22 -40 -52 -8 -152 137 -122
173 16 19 19 19 56 -4z m-1346 5 c0 -2 -8 -10 -17 -17 -16 -13 -17 -12 -4 4
13 16 21 21 21 13z m1138 -133 c-21 -2 -55 -2 -75 0 -21 2 -4 4 37 4 41 0 58
-2 38 -4z m-2048 -13 c-105 -8 -177 -31 -250 -81 -38 -25 -40 -26 -15 -4 74
64 161 94 275 93 l85 -1 -95 -7z m1917 4 c-3 -3 -12 -4 -19 -1 -8 3 -5 6 6 6
11 1 17 -2 13 -5z m206 -1 c-7 -2 -19 -2 -25 0 -7 3 -2 5 12 5 14 0 19 -2 13
-5z m-1996 -9 c-3 -3 -12 -4 -19 -1 -8 3 -5 6 6 6 11 1 17 -2 13 -5z m1713
-14 c-8 -5 -19 -10 -25 -10 -5 0 -3 5 5 10 8 5 20 10 25 10 6 0 3 -5 -5 -10z
m460 -75 c19 -19 32 -35 29 -35 -3 0 -20 16 -39 35 -19 19 -32 35 -29 35 3 0
20 -16 39 -35z m-570 12 c0 -2 -10 -12 -22 -23 l-23 -19 19 23 c18 21 26 27
26 19z m-1419 -24 c13 -16 12 -17 -3 -4 -10 7 -18 15 -18 17 0 8 8 3 21 -13z
m-638 -68 c-3 -9 -8 -14 -10 -11 -3 3 -2 9 2 15 9 16 15 13 8 -4z m-26 -77
c-3 -8 -6 -5 -6 6 -1 11 2 17 5 13 3 -3 4 -12 1 -19z"/>
<path d="M4152 1804 c-45 -374 -219 -765 -480 -1074 -219 -261 -533 -480 -862
-603 -122 -45 -316 -93 -450 -111 -95 -13 -15 -14 853 -15 l957 -1 0 955 c0
525 -1 955 -3 955 -1 0 -8 -48 -15 -106z"/>
<path d="M1 943 l-1 -943 958 1 c595 1 929 5 882 10 -523 60 -1018 328 -1358
734 -253 301 -421 687 -471 1075 -5 38 -9 -323 -10 -877z"/>
<path d="M3059 1836 c-107 -38 -161 -98 -167 -186 -6 -76 8 -110 66 -160 74
-66 183 -86 288 -55 55 16 126 71 149 116 20 37 19 123 -1 165 -49 103 -216
163 -335 120z m-72 -213 c-3 -10 -5 -4 -5 12 0 17 2 24 5 18 2 -7 2 -21 0 -30z
m330 0 c-3 -10 -5 -4 -5 12 0 17 2 24 5 18 2 -7 2 -21 0 -30z m-286 -80 c13
-16 12 -17 -3 -4 -17 13 -22 21 -14 21 2 0 10 -8 17 -17z m259 13 c0 -2 -8
-10 -17 -17 -16 -13 -17 -12 -4 4 13 16 21 21 21 13z"/>
<path d="M1115 1835 c-5 -2 -26 -6 -46 -9 -52 -9 -125 -61 -154 -110 -27 -46
-33 -113 -14 -163 16 -42 68 -93 124 -119 56 -27 166 -33 226 -12 58 19 118
67 141 111 56 108 4 228 -123 281 -34 14 -136 28 -154 21z"/>
</g>
</svg>
